#N canvas 327 439 510 332 10;
#X obj 114 106 bp~;
#X obj 114 30 inlet~;
#X obj 170 30 inlet;
#X obj 216 31 inlet;
#X obj 114 227 outlet~;
#X obj 114 152 *~;
#X obj 114 186 *~;
#X obj 20 45 tgl 15 0 empty empty empty 17 7 0 10 -262144 -1 -1 0 1
;
#X obj 45 17 vsl 40 40 0 20 0 0 empty empty empty 0 -9 0 10 -262144
-1 -1 0 1;
#X obj 265 33 inlet~;
#X text 117 9 noise;
#X text 173 9 freq;
#X text 229 10 Q;
#X text 264 11 audio_in;
#X connect 0 0 5 0;
#X connect 1 0 0 0;
#X connect 2 0 0 1;
#X connect 3 0 0 2;
#X connect 5 0 6 0;
#X connect 6 0 4 0;
#X connect 7 0 6 1;
#X connect 8 0 5 1;
#X connect 9 0 0 0;
#X coords 0 -1 1 1 85 60 1 0 0;
