#N canvas 193 67 1182 754 10;
#X obj 220 -154 inlet~;
#X obj 221 308 outlet~;
#X obj 55 4 tgl 15 0 empty empty empty 17 7 0 10 -262144 -1 -1 1 1
;
#X obj 8 6 vsl 40 40 0 40 0 0 empty empty empty 0 -9 0 10 -262144 -1
-1 2900 1;
#X obj 371 -151 inlet~;
#X text 223 -175 noise;
#X text 370 -173 audio_in;
#X obj 220 68 bp~;
#X obj 533 -82 metro 100;
#X obj 626 -65 random 500;
#X obj 626 -40 + 500;
#X obj 533 -16 random 200;
#N canvas 93 159 450 300 myLine 0;
#X obj 169 138 pack f f;
#X obj 169 190 line 0 100;
#X msg 169 163 list \$1 \$2;
#X obj 166 58 inlet;
#X obj 215 60 inlet;
#X obj 179 259 outlet;
#X connect 0 0 2 0;
#X connect 1 0 5 0;
#X connect 2 0 1 0;
#X connect 3 0 0 0;
#X connect 4 0 0 1;
#X restore 575 34 pd myLine;
#X obj 576 85 +;
#X obj 533 -111 loadbang;
#X obj 863 -41 metro 100;
#X obj 863 104 - 1;
#X obj 863 140 +;
#X floatatom 1035 93 5 0 0 0 - - -;
#X obj 983 51 20;
#X floatatom 818 138 5 0 0 0 - - -;
#X obj 863 26 random 3;
#X obj 983 124 clip 1 100;
#X obj 256 -50 f;
#X obj 299 -49 + 1;
#X obj 256 -23 mod 100;
#X obj 256 -75 metro 100;
#X obj 349 -58 random 500;
#X obj 349 -33 + 500;
#X obj 220 203 *~;
#X obj 256 186 *;
#N canvas 93 159 450 300 myLine 0;
#X obj 169 138 pack f f;
#X obj 169 190 line 0 100;
#X msg 169 163 list \$1 \$2;
#X obj 166 58 inlet;
#X obj 215 60 inlet;
#X obj 179 259 outlet;
#X connect 0 0 2 0;
#X connect 1 0 5 0;
#X connect 2 0 1 0;
#X connect 3 0 0 0;
#X connect 4 0 0 1;
#X restore 256 137 pd myLine;
#X obj 256 10 tabread g1;
#X obj 8 54 nbx 5 14 -1e+37 1e+37 0 1 empty empty empty 0 -8 0 10 -262144
-1 -1 29.7436 256;
#X obj 7 91 nbx 5 14 -1e+37 1e+37 0 1 gain_rand empty empty 0 -8 0
10 -262144 -1 -1 217 256;
#X obj 9 163 nbx 5 14 -1e+37 1e+37 0 1 Q_metro empty empty 0 -8 0 10
-262144 -1 -1 262 256;
#X text 8 145 Q_metro;
#X obj 8 201 nbx 5 14 -1e+37 1e+37 0 1 Q_center empty empty 0 -8 0
10 -262144 -1 -1 59 256;
#X obj 914 -71 r Q_metro;
#X text 7 183 Q_center;
#X obj 998 16 r Q_center;
#X obj 6 125 nbx 5 14 -1e+37 1e+37 0 1 freq_rand empty empty 0 -8 0
10 -262144 -1 -1 551 256;
#X text 4 107 freq_rand;
#X text 5 73 gain_rand;
#X obj 683 -104 r freq_rand;
#X obj 406 -92 r gain_rand;
#X obj 221 252 *~;
#X obj 863 -99 loadbang;
#X obj 256 -107 loadbang;
#X obj 328 -7 inlet;
#X floatatom 636 158 5 0 0 0 - - -;
#X floatatom 902 225 5 0 0 0 - - -;
#X obj 862 -128 bng 15 250 50 0 empty empty empty 17 7 0 10 -262144
-1 -1;
#X floatatom 276 44 5 0 0 0 - - -;
#X obj 463 78 +;
#X obj 8 236 nbx 5 14 -1e+37 1e+37 0 1 empty empty empty 0 -8 0 10
-262144 -1 -1 -399 256;
#X text 8 218 freq_offset;
#X floatatom 455 120 5 0 0 0 - - -;
#X obj 687 38 line 0 100;
#X obj 687 -2 r windSpeed;
#X connect 0 0 7 0;
#X connect 2 0 46 1;
#X connect 3 0 33 0;
#X connect 7 0 29 0;
#X connect 8 0 9 0;
#X connect 8 0 11 0;
#X connect 9 0 10 0;
#X connect 10 0 8 1;
#X connect 10 0 12 1;
#X connect 11 0 12 0;
#X connect 12 0 13 0;
#X connect 13 0 50 0;
#X connect 13 0 54 0;
#X connect 14 0 8 0;
#X connect 15 0 19 0;
#X connect 15 0 21 0;
#X connect 16 0 17 0;
#X connect 16 0 20 0;
#X connect 17 0 19 1;
#X connect 19 0 18 0;
#X connect 19 0 22 0;
#X connect 19 0 7 2;
#X connect 19 0 51 0;
#X connect 21 0 16 0;
#X connect 22 0 17 1;
#X connect 23 0 24 0;
#X connect 23 0 25 0;
#X connect 24 0 23 1;
#X connect 25 0 32 0;
#X connect 26 0 23 0;
#X connect 26 0 27 0;
#X connect 27 0 28 0;
#X connect 28 0 26 1;
#X connect 28 0 31 1;
#X connect 29 0 46 0;
#X connect 30 0 29 1;
#X connect 31 0 30 0;
#X connect 32 0 31 0;
#X connect 32 0 53 0;
#X connect 33 0 30 1;
#X connect 33 0 3 0;
#X connect 38 0 15 1;
#X connect 40 0 19 1;
#X connect 44 0 9 1;
#X connect 45 0 27 1;
#X connect 46 0 1 0;
#X connect 47 0 15 0;
#X connect 48 0 26 0;
#X connect 49 0 32 0;
#X connect 52 0 47 0;
#X connect 52 0 14 0;
#X connect 52 0 48 0;
#X connect 54 0 7 1;
#X connect 54 0 57 0;
#X connect 55 0 54 1;
#X connect 58 0 13 1;
#X connect 59 0 58 0;
#X coords 0 -1 1 1 100 300 1 0 0;
