#N canvas 932 112 492 452 10;
#X declare -lib mrpeach;
#X floatatom 749 214 5 0 100 0 - - -;
#X obj 749 244 tabread randomValues;
#X obj 178 19 pink~;
#X obj 157 235 output~;
#X obj 119 36 bp~;
#X obj 119 61 bp~;
#X obj 119 87 bp~;
#X obj 73 -16 r windSpeed;
#X floatatom 73 20 5 0 0 0 - - -;
#X obj 284 -5 r gust;
#X floatatom 284 19 5 0 0 0 - - -;
#X obj 4 -65 myOSC;
#X obj 38 145 myReverb;
#X obj 247 36 bp~;
#X obj 247 61 bp~;
#X obj 247 87 bp~;
#X connect 0 0 1 0;
#X connect 2 0 4 0;
#X connect 2 0 13 0;
#X connect 4 0 5 0;
#X connect 5 0 6 0;
#X connect 6 0 12 0;
#X connect 7 0 8 0;
#X connect 8 0 4 1;
#X connect 8 0 5 1;
#X connect 8 0 6 1;
#X connect 8 0 13 1;
#X connect 8 0 14 1;
#X connect 8 0 15 1;
#X connect 9 0 10 0;
#X connect 10 0 4 2;
#X connect 10 0 5 2;
#X connect 10 0 6 2;
#X connect 10 0 13 2;
#X connect 10 0 14 2;
#X connect 10 0 15 2;
#X connect 12 0 3 0;
#X connect 12 1 3 1;
#X connect 13 0 14 0;
#X connect 14 0 15 0;
#X connect 15 0 12 1;
