#N canvas 348 57 1043 738 10;
#X declare -lib mrpeach;
#X obj -171 -79 myOSC;
#X obj -95 315 myReverb;
#X obj 151 446 lop~;
#X obj 185 446 lop~;
#X obj 259 431 hsl 128 15 0 4000 0 0 empty empty empty -2 -8 0 10 -4032
-1 -1 4500 1;
#X obj 511 504 s~ sfr;
#X obj 398 289 loadSoundFile;
#X obj 76 446 lop~;
#X obj 116 446 lop~;
#X obj 14 523 myOutput~;
#X obj 398 256 r freq;
#X obj 511 256 r randValQ;
#X obj -207 298 r~ sfl;
#X obj -108 445 hip~;
#X obj -74 445 hip~;
#X obj -36 445 hip~;
#X obj 0 445 hip~;
#X obj -259 430 hsl 128 15 0 4000 0 0 empty empty empty -2 -8 0 10
-4032 -1 -1 5100 1;
#X obj -110 -15 _noise~;
#X obj -172 -32 pink~;
#X msg -65 -67 set g1;
#X msg 229 -58 set g4;
#X msg 131 -58 set g3;
#X msg 33 -63 set g2;
#X obj 332 -55 table g1;
#X obj 333 -29 table g2;
#X obj 334 -5 table g3;
#X obj 335 24 table g4;
#X obj -13 -15 _noise~;
#X obj 85 -15 _noise~;
#X obj 183 -15 _noise~;
#X obj 398 504 send~ sfl;
#X obj 253 298 receive~ sfr;
#X connect 1 0 13 0;
#X connect 1 0 7 0;
#X connect 1 1 14 0;
#X connect 1 1 8 0;
#X connect 1 2 15 0;
#X connect 1 2 2 0;
#X connect 1 3 16 0;
#X connect 1 3 3 0;
#X connect 2 0 9 2;
#X connect 3 0 9 3;
#X connect 4 0 3 1;
#X connect 4 0 2 1;
#X connect 4 0 7 1;
#X connect 4 0 8 1;
#X connect 6 0 31 0;
#X connect 6 1 5 0;
#X connect 7 0 9 0;
#X connect 8 0 9 1;
#X connect 10 0 6 0;
#X connect 11 0 6 1;
#X connect 12 0 1 0;
#X connect 13 0 9 0;
#X connect 14 0 9 1;
#X connect 15 0 9 2;
#X connect 16 0 9 3;
#X connect 17 0 16 1;
#X connect 17 0 15 1;
#X connect 17 0 14 1;
#X connect 17 0 13 1;
#X connect 18 0 1 0;
#X connect 19 0 18 0;
#X connect 19 0 28 0;
#X connect 19 0 29 0;
#X connect 19 0 30 0;
#X connect 20 0 18 1;
#X connect 21 0 30 1;
#X connect 22 0 29 1;
#X connect 23 0 28 1;
#X connect 28 0 1 1;
#X connect 29 0 1 2;
#X connect 30 0 1 3;
#X connect 32 0 1 1;
