#N canvas 171 22 1192 813 10;
#X declare -lib mrpeach;
#X obj -330 -37 myOSC;
#X obj 76 375 myReverb;
#X obj -327 199 line 0 100;
#X obj -327 159 r windSpeed;
#X obj -175 -16 tgl 15 0 empty empty empty 17 7 0 10 -262144 -1 -1
0 1;
#X obj -175 43 random 6;
#X obj -175 69 / 6;
#X obj -175 153 pack f f;
#X obj -175 205 line 0 100;
#X msg -175 178 list \$1 \$2;
#X obj -101 52 r gust;
#X obj -130 123 r gustInterval;
#X obj -175 13 metro 1000;
#X obj -118 -20 r gustInterval;
#X obj -175 124 + 3;
#X obj -175 96 * 2;
#X obj 335 506 lop~;
#X obj 369 506 lop~;
#X obj 443 491 hsl 128 15 0 4000 0 0 empty empty empty -2 -8 0 10 -4032
-1 -1 3900 1;
#X obj 562 275 delwrite~ delLeft 4000;
#X obj 706 276 delwrite~ delRight 4000;
#X obj -256 544 sig~;
#X floatatom -256 522 5 0 0 0 - - -;
#X obj -256 570 vd~ delLeft;
#X obj -182 561 vd~ delRight;
#X obj -253 496 hsl 128 15 0 4000 0 0 empty empty empty -2 -8 0 10
-257985 -1 -1 6700 1;
#X obj -254 435 sig~;
#X floatatom -254 413 5 0 0 0 - - -;
#X obj -254 461 vd~ delLeft;
#X obj -180 452 vd~ delRight;
#X obj -251 387 hsl 128 15 0 4000 0 0 empty empty empty -2 -8 0 10
-257985 -1 -1 0 1;
#X obj 573 160 tabread randomValues;
#X obj 573 61 bng 15 250 50 0 empty empty empty 17 7 0 10 -262144 -1
-1;
#X obj 573 106 f;
#X obj 616 107 + 1;
#X obj 573 133 mod 100;
#X obj 573 81 metro 100;
#X msg 627 -17 50;
#X msg 662 -5 100;
#X msg 687 20 150;
#X msg 597 -17 10;
#X obj 666 123 + 10;
#X obj 666 98 random 500;
#X obj -175 249 spigot;
#X obj -203 234 tgl 15 0 empty empty empty 17 7 0 10 -262144 -1 -1
0 1;
#X obj -327 249 spigot;
#X floatatom -327 280 5 0 0 0 - - -;
#X floatatom -175 274 5 0 0 0 - - -;
#X obj -255 216 s freq;
#X obj -101 222 s gustQ;
#X obj 574 232 table randomValues;
#X obj 573 195 s randValQ;
#X obj 695 564 s~ sfr;
#X obj 582 564 s~ sfl;
#X obj 582 349 loadSoundFile;
#X obj 260 506 lop~;
#X obj 300 506 lop~;
#X msg 723 44 500;
#X obj 198 583 myOutput~;
#X obj 582 316 r freq;
#X obj 695 316 r randValQ;
#X obj -23 358 r~ sfl;
#X obj 437 358 r~ sfr;
#X obj 76 505 hip~;
#X obj 110 505 hip~;
#X obj 148 505 hip~;
#X obj 184 505 hip~;
#X obj -75 490 hsl 128 15 0 4000 0 0 empty empty empty -2 -8 0 10 -4032
-1 -1 3300 1;
#X obj 74 45 _noise~;
#X obj 12 28 pink~;
#X floatatom 868 173 5 0 500 0 - - -;
#X obj 745 219 tabwrite randomValues;
#X obj 745 182 symbol;
#X obj 746 152 +;
#X msg 119 -7 set g1;
#X msg 413 2 set g4;
#X msg 315 2 set g3;
#X msg 217 -3 set g2;
#X obj 114 -146 table g1;
#X obj 115 -120 table g2;
#X obj 116 -96 table g3;
#X obj 117 -67 table g4;
#X obj 171 45 _noise~;
#X obj 269 45 _noise~;
#X obj 367 45 _noise~;
#X connect 1 0 63 0;
#X connect 1 0 55 0;
#X connect 1 1 64 0;
#X connect 1 1 56 0;
#X connect 1 2 65 0;
#X connect 1 2 16 0;
#X connect 1 3 66 0;
#X connect 1 3 17 0;
#X connect 2 0 45 0;
#X connect 2 0 48 0;
#X connect 3 0 2 0;
#X connect 4 0 12 0;
#X connect 5 0 6 0;
#X connect 6 0 15 0;
#X connect 7 0 9 0;
#X connect 8 0 43 0;
#X connect 8 0 49 0;
#X connect 9 0 8 0;
#X connect 10 0 5 1;
#X connect 10 0 6 1;
#X connect 11 0 7 1;
#X connect 12 0 5 0;
#X connect 13 0 12 1;
#X connect 14 0 7 0;
#X connect 15 0 14 0;
#X connect 16 0 58 2;
#X connect 17 0 58 3;
#X connect 18 0 17 1;
#X connect 18 0 16 1;
#X connect 18 0 55 1;
#X connect 18 0 56 1;
#X connect 21 0 23 0;
#X connect 21 0 24 0;
#X connect 22 0 21 0;
#X connect 23 0 58 0;
#X connect 24 0 58 1;
#X connect 25 0 22 0;
#X connect 26 0 28 0;
#X connect 26 0 29 0;
#X connect 27 0 26 0;
#X connect 30 0 27 0;
#X connect 31 0 51 0;
#X connect 32 0 36 0;
#X connect 33 0 34 0;
#X connect 33 0 35 0;
#X connect 34 0 33 1;
#X connect 35 0 31 0;
#X connect 36 0 33 0;
#X connect 36 0 42 0;
#X connect 37 0 42 1;
#X connect 38 0 42 1;
#X connect 39 0 42 1;
#X connect 40 0 42 1;
#X connect 41 0 36 1;
#X connect 42 0 41 0;
#X connect 43 0 47 0;
#X connect 44 0 43 1;
#X connect 44 0 45 1;
#X connect 45 0 46 0;
#X connect 54 0 53 0;
#X connect 54 1 52 0;
#X connect 55 0 58 0;
#X connect 56 0 58 1;
#X connect 57 0 42 1;
#X connect 59 0 54 0;
#X connect 60 0 54 1;
#X connect 61 0 1 0;
#X connect 62 0 1 1;
#X connect 63 0 19 0;
#X connect 64 0 20 0;
#X connect 65 0 58 2;
#X connect 66 0 58 3;
#X connect 67 0 66 1;
#X connect 67 0 65 1;
#X connect 67 0 64 1;
#X connect 67 0 63 1;
#X connect 68 0 1 0;
#X connect 69 0 68 0;
#X connect 69 0 82 0;
#X connect 69 0 83 0;
#X connect 69 0 84 0;
#X connect 70 0 71 1;
#X connect 70 0 73 0;
#X connect 72 0 71 0;
#X connect 72 0 73 1;
#X connect 73 0 72 0;
#X connect 74 0 68 1;
#X connect 75 0 84 1;
#X connect 76 0 83 1;
#X connect 77 0 82 1;
#X connect 82 0 1 1;
#X connect 83 0 1 2;
#X connect 84 0 1 3;
