#N canvas 757 181 484 347 10;
#X floatatom 749 214 5 0 100 0 - - -;
#X obj 749 244 tabread randomValues;
#X msg 235 53 600;
#X msg 273 68 3.14;
#X obj 191 54 pink~;
#X obj 163 184 output~;
#X obj 191 87 bp~;
#X obj 191 112 bp~;
#X obj 191 138 bp~;
#X connect 0 0 1 0;
#X connect 2 0 6 1;
#X connect 2 0 7 1;
#X connect 2 0 8 1;
#X connect 3 0 6 2;
#X connect 3 0 7 2;
#X connect 3 0 8 2;
#X connect 4 0 6 0;
#X connect 6 0 7 0;
#X connect 7 0 8 0;
#X connect 8 0 5 0;
#X connect 8 0 5 1;
