#N canvas 592 27 810 846 10;
#X declare -lib mrpeach;
#X obj 183 41 pink~;
#X obj 155 563 output~;
#X obj 124 58 bp~;
#X obj 124 83 bp~;
#X obj 124 109 bp~;
#X obj -330 -37 myOSC;
#X obj 47 272 myReverb;
#X obj 252 58 bp~;
#X obj 252 83 bp~;
#X obj 252 109 bp~;
#X obj 124 206 *~;
#X obj 124 240 *~;
#X obj 151 240 tgl 15 0 empty empty empty 17 7 0 10 -262144 -1 -1 0
1;
#X obj 252 239 *~;
#X obj 279 240 tgl 15 0 empty empty empty 17 7 0 10 -262144 -1 -1 0
1;
#X obj 252 206 *~;
#X obj 293 171 knob 32 32 0 20 0 0 empty empty empty 0 -8 0 8 -262144
-1 -1 0 1;
#X floatatom 293 214 5 0 0 0 - - -;
#X obj 160 171 knob 32 32 0 20 0 0 empty empty empty 0 -8 0 8 -262144
-1 -1 0 1;
#X floatatom 160 213 5 0 0 0 - - -;
#X obj 316 135 loadbang;
#X msg 259 152 5;
#X obj 55 223 loadbang;
#X obj -327 199 line 0 100;
#X obj -327 150 pack f f;
#X msg -327 175 list \$1 \$2;
#X obj -327 105 r windSpeed;
#X obj -282 126 r interval;
#X obj -175 -16 tgl 15 0 empty empty empty 17 7 0 10 -262144 -1 -1
0 1;
#X obj -175 43 random 6;
#X obj -175 69 / 6;
#X obj -175 153 pack f f;
#X obj -175 205 line 0 100;
#X msg -175 178 list \$1 \$2;
#X obj -101 52 r gust;
#X obj -130 123 r gustInterval;
#X obj -175 13 metro 1000;
#X obj -118 -20 r gustInterval;
#X obj -175 124 + 3;
#X obj -175 96 * 2;
#X obj 155 397 lop~;
#X obj 213 397 lop~;
#X obj 256 382 hsl 128 15 0 4000 0 0 empty empty empty -2 -8 0 10 -4032
-1 -1 0 1;
#X obj 362 332 delwrite~ delLeft 4000;
#X obj 512 332 delwrite~ delRight 4000;
#X obj 238 479 sig~;
#X floatatom 238 457 5 0 0 0 - - -;
#X obj 238 505 vd~ delLeft;
#X obj 312 496 vd~ delRight;
#X obj 241 431 hsl 128 15 0 4000 0 0 empty empty empty -2 -8 0 10 -257985
-1 -1 0 1;
#X obj -3 481 sig~;
#X floatatom -3 459 5 0 0 0 - - -;
#X obj -3 507 vd~ delLeft;
#X obj 71 498 vd~ delRight;
#X obj 0 433 hsl 128 15 0 4000 0 0 empty empty empty -2 -8 0 10 -257985
-1 -1 0 1;
#X obj 513 212 tabread randomValues;
#X obj 513 113 bng 15 250 50 0 empty empty empty 17 7 0 10 -262144
-1 -1;
#X obj 513 158 f;
#X obj 556 159 + 1;
#X obj 513 185 mod 100;
#X obj 513 133 metro 100;
#X msg 567 35 50;
#X msg 602 47 100;
#X msg 627 72 150;
#X msg 537 35 10;
#X obj 606 175 + 10;
#X obj 606 150 random 500;
#X obj -175 249 spigot;
#X obj -203 234 tgl 15 0 empty empty empty 17 7 0 10 -262144 -1 -1
0 1;
#X obj -327 249 spigot;
#X floatatom -327 280 5 0 0 0 - - -;
#X floatatom -175 274 5 0 0 0 - - -;
#X obj -255 216 s freq;
#X obj -101 222 s gustQ;
#X obj 179 67 r freq;
#X obj 514 284 table randomValues;
#X obj 161 97 r randomValQ;
#X obj 513 247 s randValQ;
#X obj 635 467 s~ sfr;
#X obj 522 467 s~ sfl;
#X obj 124 29 r~ sfl;
#X obj 252 28 r~ sfr;
#X obj 522 401 loadSoundFile;
#X connect 0 0 2 0;
#X connect 0 0 7 0;
#X connect 2 0 3 0;
#X connect 3 0 4 0;
#X connect 4 0 10 0;
#X connect 6 0 40 0;
#X connect 6 0 43 0;
#X connect 6 1 41 0;
#X connect 6 1 44 0;
#X connect 7 0 8 0;
#X connect 8 0 9 0;
#X connect 9 0 15 0;
#X connect 10 0 11 0;
#X connect 11 0 6 0;
#X connect 12 0 11 1;
#X connect 13 0 6 1;
#X connect 14 0 13 1;
#X connect 15 0 13 0;
#X connect 16 0 15 1;
#X connect 16 0 17 0;
#X connect 18 0 19 0;
#X connect 18 0 10 1;
#X connect 20 0 21 0;
#X connect 21 0 16 0;
#X connect 21 0 18 0;
#X connect 22 0 12 0;
#X connect 22 0 14 0;
#X connect 23 0 69 0;
#X connect 23 0 72 0;
#X connect 24 0 25 0;
#X connect 25 0 23 0;
#X connect 26 0 24 0;
#X connect 27 0 24 1;
#X connect 28 0 36 0;
#X connect 29 0 30 0;
#X connect 30 0 39 0;
#X connect 31 0 33 0;
#X connect 32 0 67 0;
#X connect 32 0 73 0;
#X connect 33 0 32 0;
#X connect 34 0 29 1;
#X connect 34 0 30 1;
#X connect 35 0 31 1;
#X connect 36 0 29 0;
#X connect 37 0 36 1;
#X connect 38 0 31 0;
#X connect 39 0 38 0;
#X connect 40 0 1 0;
#X connect 41 0 1 1;
#X connect 42 0 41 1;
#X connect 42 0 40 1;
#X connect 45 0 47 0;
#X connect 45 0 48 0;
#X connect 46 0 45 0;
#X connect 47 0 1 0;
#X connect 48 0 1 1;
#X connect 49 0 46 0;
#X connect 50 0 52 0;
#X connect 50 0 53 0;
#X connect 51 0 50 0;
#X connect 52 0 1 0;
#X connect 53 0 1 1;
#X connect 54 0 51 0;
#X connect 55 0 77 0;
#X connect 56 0 60 0;
#X connect 57 0 58 0;
#X connect 57 0 59 0;
#X connect 58 0 57 1;
#X connect 59 0 55 0;
#X connect 60 0 57 0;
#X connect 60 0 66 0;
#X connect 61 0 66 1;
#X connect 62 0 66 1;
#X connect 63 0 66 1;
#X connect 64 0 66 1;
#X connect 65 0 60 1;
#X connect 66 0 65 0;
#X connect 67 0 71 0;
#X connect 68 0 67 1;
#X connect 68 0 69 1;
#X connect 69 0 70 0;
#X connect 74 0 2 1;
#X connect 74 0 4 1;
#X connect 74 0 3 1;
#X connect 74 0 8 1;
#X connect 74 0 7 1;
#X connect 74 0 9 1;
#X connect 76 0 2 2;
#X connect 76 0 3 2;
#X connect 76 0 4 2;
#X connect 76 0 9 2;
#X connect 76 0 8 2;
#X connect 76 0 7 2;
#X connect 80 0 2 0;
#X connect 81 0 7 0;
#X connect 82 0 79 0;
#X connect 82 1 78 0;
