#N canvas 642 175 749 615 10;
#X declare -lib mrpeach;
#X floatatom 749 214 5 0 100 0 - - -;
#X obj 749 244 tabread randomValues;
#X obj 178 67 pink~;
#X obj 157 380 output~;
#X obj 119 84 bp~;
#X obj 119 109 bp~;
#X obj 119 135 bp~;
#X floatatom 73 68 5 0 0 0 - - -;
#X obj 284 43 r gust;
#X floatatom 284 67 5 0 0 0 - - -;
#X obj 4 -65 myOSC;
#X obj 42 298 myReverb;
#X obj 247 84 bp~;
#X obj 247 109 bp~;
#X obj 247 135 bp~;
#X obj 119 232 *~;
#X obj 119 266 *~;
#X obj 146 266 tgl 15 0 empty empty empty 17 7 0 10 -262144 -1 -1 1
1;
#X obj 247 265 *~;
#X obj 274 266 tgl 15 0 empty empty empty 17 7 0 10 -262144 -1 -1 1
1;
#X obj 247 232 *~;
#X obj 288 197 knob 32 32 0 20 0 0 empty empty empty 0 -8 0 8 -262144
-1 -1 775 1;
#X floatatom 288 240 5 0 0 0 - - -;
#X obj 155 197 knob 32 32 0 20 0 0 empty empty empty 0 -8 0 8 -262144
-1 -1 775 1;
#X floatatom 155 239 5 0 0 0 - - -;
#X obj 311 161 loadbang;
#X msg 254 178 5;
#X obj 50 249 loadbang;
#X obj 73 40 line 0 100;
#X obj 73 -9 pack f f;
#X msg 73 16 list \$1 \$2;
#X obj 73 -54 r windSpeed;
#X obj 118 -33 r interval;
#X connect 0 0 1 0;
#X connect 2 0 4 0;
#X connect 2 0 12 0;
#X connect 4 0 5 0;
#X connect 5 0 6 0;
#X connect 6 0 15 0;
#X connect 7 0 4 1;
#X connect 7 0 5 1;
#X connect 7 0 6 1;
#X connect 7 0 12 1;
#X connect 7 0 13 1;
#X connect 7 0 14 1;
#X connect 8 0 9 0;
#X connect 9 0 4 2;
#X connect 9 0 5 2;
#X connect 9 0 6 2;
#X connect 9 0 12 2;
#X connect 9 0 13 2;
#X connect 9 0 14 2;
#X connect 11 0 3 0;
#X connect 11 1 3 1;
#X connect 12 0 13 0;
#X connect 13 0 14 0;
#X connect 14 0 20 0;
#X connect 15 0 16 0;
#X connect 16 0 11 0;
#X connect 17 0 16 1;
#X connect 18 0 11 1;
#X connect 19 0 18 1;
#X connect 20 0 18 0;
#X connect 21 0 20 1;
#X connect 21 0 22 0;
#X connect 23 0 24 0;
#X connect 23 0 15 1;
#X connect 25 0 26 0;
#X connect 26 0 21 0;
#X connect 26 0 23 0;
#X connect 27 0 17 0;
#X connect 27 0 19 0;
#X connect 28 0 7 0;
#X connect 29 0 30 0;
#X connect 30 0 28 0;
#X connect 31 0 29 0;
#X connect 32 0 29 1;
