#N canvas 537 118 868 497 10;
#X obj 237 62 pink~;
#X obj 29 93 bp~;
#X obj 57 93 bp~;
#X obj 84 93 bp~;
#X obj 84 178 *~;
#X obj 84 212 *~;
#X obj 121 150 tgl 15 0 empty empty empty 17 7 0 10 -262144 -1 -1 1
1;
#X floatatom 146 182 5 0 0 0 - - -;
#X obj 657 89 loadbang;
#X msg 600 106 5;
#X obj 157 93 bp~;
#X obj 185 93 bp~;
#X obj 212 93 bp~;
#X obj 212 176 *~;
#X obj 212 210 *~;
#X obj 227 150 tgl 15 0 empty empty empty 17 7 0 10 -262144 -1 -1 1
1;
#X floatatom 277 185 5 0 0 0 - - -;
#X obj 285 93 bp~;
#X obj 313 93 bp~;
#X obj 340 93 bp~;
#X obj 340 183 *~;
#X obj 340 217 *~;
#X obj 355 150 tgl 15 0 empty empty empty 17 7 0 10 -262144 -1 -1 1
1;
#X floatatom 401 183 5 0 0 0 - - -;
#X obj 411 93 bp~;
#X obj 439 93 bp~;
#X obj 466 93 bp~;
#X obj 466 179 *~;
#X obj 466 213 *~;
#X obj 481 150 tgl 15 0 empty empty empty 17 7 0 10 -262144 -1 -1 1
1;
#X floatatom 537 186 5 0 0 0 - - -;
#X obj 657 136 bng 15 250 50 0 empty empty empty 17 7 0 10 -262144
-1 -1;
#X obj 146 125 vsl 40 40 0 20 0 0 empty empty empty 0 -9 0 10 -262144
-1 -1 975 1;
#X obj 269 125 vsl 40 40 0 20 0 0 empty empty empty 0 -9 0 10 -262144
-1 -1 975 1;
#X obj 393 125 vsl 40 40 0 20 0 0 empty empty empty 0 -9 0 10 -262144
-1 -1 975 1;
#X obj 515 125 vsl 40 40 0 20 0 0 empty empty empty 0 -9 0 10 -262144
-1 -1 975 1;
#X obj -19 93 inlet~;
#X obj 113 93 inlet~;
#X obj 240 92 inlet~;
#X obj 367 92 inlet~;
#X obj 181 400 outlet~;
#X obj 266 377 outlet~;
#X obj 350 372 outlet~;
#X obj 432 391 outlet~;
#N canvas 852 346 450 300 testParBP 0;
#X obj 37 37 inlet~;
#X obj 32 104 bp~;
#X obj 70 104 bp~;
#X obj 104 104 bp~;
#X obj 91 37 inlet;
#X obj 136 37 inlet;
#X obj 78 202 outlet~;
#X obj 252 209 bp~;
#X obj 210 207 bp~;
#X obj 286 211 bp~;
#X obj 333 216 bp~;
#X obj 190 56 + 100;
#X obj 221 55 - 100;
#X obj 255 53 + 110;
#X obj 293 52 - 110;
#X obj 331 51 + 120;
#X obj 376 52 - 120;
#X connect 0 0 1 0;
#X connect 0 0 2 0;
#X connect 0 0 3 0;
#X connect 0 0 8 0;
#X connect 0 0 7 0;
#X connect 0 0 9 0;
#X connect 0 0 10 0;
#X connect 1 0 6 0;
#X connect 2 0 6 0;
#X connect 3 0 6 0;
#X connect 4 0 1 1;
#X connect 4 0 11 0;
#X connect 4 0 12 0;
#X connect 4 0 13 0;
#X connect 4 0 14 0;
#X connect 4 0 15 0;
#X connect 4 0 16 0;
#X connect 5 0 1 2;
#X connect 5 0 2 2;
#X connect 5 0 3 2;
#X connect 5 0 8 2;
#X connect 5 0 7 2;
#X connect 5 0 9 2;
#X connect 5 0 10 2;
#X connect 7 0 6 0;
#X connect 8 0 6 0;
#X connect 9 0 6 0;
#X connect 10 0 6 0;
#X connect 11 0 2 1;
#X connect 12 0 3 1;
#X connect 13 0 8 1;
#X connect 14 0 7 1;
#X connect 15 0 9 1;
#X connect 16 0 10 1;
#X restore 671 279 pd testParBP;
#X obj 17 55 + 100;
#X obj 150 51 + 200;
#X obj 419 53 - 200;
#X obj 283 61 - 100;
#X obj 283 26 r freq;
#X obj 15 27 r freq;
#X obj 419 25 r freq;
#X obj 150 24 r freq;
#X obj 62 28 r gustQ;
#X obj 213 26 r gustQ;
#X obj 328 26 r gustQ;
#X obj 474 31 r gustQ;
#X connect 0 0 1 0;
#X connect 0 0 10 0;
#X connect 0 0 17 0;
#X connect 0 0 24 0;
#X connect 1 0 2 0;
#X connect 2 0 3 0;
#X connect 3 0 4 0;
#X connect 4 0 5 0;
#X connect 5 0 40 0;
#X connect 6 0 5 1;
#X connect 8 0 9 0;
#X connect 8 0 31 0;
#X connect 9 0 35 0;
#X connect 9 0 34 0;
#X connect 9 0 32 0;
#X connect 9 0 33 0;
#X connect 10 0 11 0;
#X connect 11 0 12 0;
#X connect 12 0 13 0;
#X connect 13 0 14 0;
#X connect 14 0 41 0;
#X connect 15 0 14 1;
#X connect 17 0 18 0;
#X connect 18 0 19 0;
#X connect 19 0 20 0;
#X connect 20 0 21 0;
#X connect 21 0 42 0;
#X connect 22 0 21 1;
#X connect 24 0 25 0;
#X connect 25 0 26 0;
#X connect 26 0 27 0;
#X connect 27 0 28 0;
#X connect 28 0 43 0;
#X connect 29 0 28 1;
#X connect 31 0 6 0;
#X connect 31 0 15 0;
#X connect 31 0 22 0;
#X connect 31 0 29 0;
#X connect 32 0 4 1;
#X connect 32 0 7 0;
#X connect 33 0 13 1;
#X connect 33 0 16 0;
#X connect 34 0 20 1;
#X connect 34 0 23 0;
#X connect 35 0 27 1;
#X connect 35 0 30 0;
#X connect 36 0 1 0;
#X connect 37 0 10 0;
#X connect 38 0 17 0;
#X connect 39 0 24 0;
#X connect 45 0 1 0;
#X connect 45 0 2 0;
#X connect 45 0 3 0;
#X connect 46 0 10 1;
#X connect 46 0 11 1;
#X connect 46 0 12 1;
#X connect 47 0 24 1;
#X connect 47 0 25 1;
#X connect 47 0 26 1;
#X connect 48 0 17 1;
#X connect 48 0 18 1;
#X connect 48 0 19 1;
#X connect 49 0 48 0;
#X connect 50 0 45 0;
#X connect 51 0 47 0;
#X connect 52 0 46 0;
#X connect 53 0 1 2;
#X connect 53 0 2 2;
#X connect 53 0 3 2;
#X connect 54 0 10 2;
#X connect 54 0 11 2;
#X connect 54 0 12 2;
#X connect 55 0 17 2;
#X connect 55 0 18 2;
#X connect 55 0 19 2;
#X connect 56 0 24 2;
#X connect 56 0 25 2;
#X connect 56 0 26 2;
#X coords 0 -1 1 1 500 50 1 80 120;
