#N canvas 94 121 868 497 10;
#X obj 214 9 pink~;
#X obj 29 93 bp~;
#X obj 57 93 bp~;
#X obj 84 93 bp~;
#X obj 84 178 *~;
#X obj 84 212 *~;
#X obj 121 150 tgl 15 0 empty empty empty 17 7 0 10 -262144 -1 -1 0
1;
#X floatatom 146 182 5 0 0 0 - - -;
#X obj 95 29 r freq;
#X obj 657 89 loadbang;
#X msg 600 106 5;
#X obj 157 93 bp~;
#X obj 185 93 bp~;
#X obj 212 93 bp~;
#X obj 212 176 *~;
#X obj 212 210 *~;
#X obj 227 150 tgl 15 0 empty empty empty 17 7 0 10 -262144 -1 -1 0
1;
#X floatatom 277 185 5 0 0 0 - - -;
#X obj 223 29 r freq;
#X obj 285 93 bp~;
#X obj 313 93 bp~;
#X obj 340 93 bp~;
#X obj 340 183 *~;
#X obj 340 217 *~;
#X obj 355 150 tgl 15 0 empty empty empty 17 7 0 10 -262144 -1 -1 0
1;
#X floatatom 401 183 5 0 0 0 - - -;
#X obj 351 29 r freq;
#X obj 411 93 bp~;
#X obj 439 93 bp~;
#X obj 466 93 bp~;
#X obj 466 179 *~;
#X obj 466 213 *~;
#X obj 481 150 tgl 15 0 empty empty empty 17 7 0 10 -262144 -1 -1 0
1;
#X floatatom 537 186 5 0 0 0 - - -;
#X obj 477 29 r freq;
#X obj 657 136 bng 15 250 50 0 empty empty empty 17 7 0 10 -262144
-1 -1;
#X obj 146 125 vsl 40 40 0 20 0 0 empty empty empty 0 -9 0 10 -262144
-1 -1 975 1;
#X obj 269 125 vsl 40 40 0 20 0 0 empty empty empty 0 -9 0 10 -262144
-1 -1 975 1;
#X obj 393 125 vsl 40 40 0 20 0 0 empty empty empty 0 -9 0 10 -262144
-1 -1 975 1;
#X obj 515 125 vsl 40 40 0 20 0 0 empty empty empty 0 -9 0 10 -262144
-1 -1 975 1;
#X obj -19 93 inlet~;
#X obj 113 93 inlet~;
#X obj 240 92 inlet~;
#X obj 367 92 inlet~;
#X obj 17 29 r randValQ;
#X obj 145 29 r randValQ;
#X obj 273 29 r randValQ;
#X obj 399 29 r randValQ;
#X obj 181 400 outlet~;
#X obj 266 377 outlet~;
#X obj 350 372 outlet~;
#X obj 432 391 outlet~;
#X connect 0 0 1 0;
#X connect 0 0 11 0;
#X connect 0 0 19 0;
#X connect 0 0 27 0;
#X connect 1 0 2 0;
#X connect 2 0 3 0;
#X connect 3 0 4 0;
#X connect 4 0 5 0;
#X connect 5 0 48 0;
#X connect 6 0 5 1;
#X connect 8 0 1 1;
#X connect 8 0 3 1;
#X connect 8 0 2 1;
#X connect 9 0 10 0;
#X connect 9 0 35 0;
#X connect 10 0 39 0;
#X connect 10 0 38 0;
#X connect 10 0 36 0;
#X connect 10 0 37 0;
#X connect 11 0 12 0;
#X connect 12 0 13 0;
#X connect 13 0 14 0;
#X connect 14 0 15 0;
#X connect 15 0 49 0;
#X connect 16 0 15 1;
#X connect 18 0 11 1;
#X connect 18 0 13 1;
#X connect 18 0 12 1;
#X connect 19 0 20 0;
#X connect 20 0 21 0;
#X connect 21 0 22 0;
#X connect 22 0 23 0;
#X connect 23 0 50 0;
#X connect 24 0 23 1;
#X connect 26 0 19 1;
#X connect 26 0 21 1;
#X connect 26 0 20 1;
#X connect 27 0 28 0;
#X connect 28 0 29 0;
#X connect 29 0 30 0;
#X connect 30 0 31 0;
#X connect 31 0 51 0;
#X connect 32 0 31 1;
#X connect 34 0 27 1;
#X connect 34 0 29 1;
#X connect 34 0 28 1;
#X connect 35 0 6 0;
#X connect 35 0 16 0;
#X connect 35 0 24 0;
#X connect 35 0 32 0;
#X connect 36 0 4 1;
#X connect 36 0 7 0;
#X connect 37 0 14 1;
#X connect 37 0 17 0;
#X connect 38 0 22 1;
#X connect 38 0 25 0;
#X connect 39 0 30 1;
#X connect 39 0 33 0;
#X connect 40 0 1 0;
#X connect 41 0 11 0;
#X connect 42 0 19 0;
#X connect 43 0 27 0;
#X connect 44 0 1 2;
#X connect 44 0 2 2;
#X connect 44 0 3 2;
#X connect 45 0 11 2;
#X connect 45 0 12 2;
#X connect 45 0 13 2;
#X connect 46 0 19 2;
#X connect 46 0 20 2;
#X connect 46 0 21 2;
#X connect 47 0 27 2;
#X connect 47 0 28 2;
#X connect 47 0 29 2;
#X coords 0 -1 1 1 500 50 1 80 120;
