#N canvas 761 33 678 545 10;
#X declare -lib mrpeach;
#X obj 179 -37 import mrpeach;
#X obj 181 -11 udpreceive 12000;
#X obj 181 15 unpackOSC;
#X obj 82 62 routeOSC /speed;
#X obj -79 59 routeOSC /temperature;
#X obj 323 119 routeOSC /gustInterval;
#X obj 355 64 routeOSC /gust;
#X obj 181 111 routeOSC /interval;
#X obj 82 128 pack f f;
#X msg 82 153 list \$1 \$2;
#X obj -79 207 s tempDry;
#X obj -47 169 s tempWet;
#X obj 82 182 s windSpeed;
#X obj 323 144 s gustInterval;
#X obj 355 89 s gust;
#X msg -47 94 1;
#X obj -47 142 -;
#X obj 82 97 clip 400 4000;
#X connect 1 0 2 0;
#X connect 2 0 3 0;
#X connect 2 0 4 0;
#X connect 2 0 5 0;
#X connect 2 0 6 0;
#X connect 2 0 7 0;
#X connect 3 0 17 0;
#X connect 4 0 10 0;
#X connect 4 0 16 1;
#X connect 4 0 15 0;
#X connect 5 0 13 0;
#X connect 6 0 14 0;
#X connect 7 0 8 1;
#X connect 8 0 9 0;
#X connect 9 0 12 0;
#X connect 15 0 16 0;
#X connect 16 0 11 0;
#X connect 17 0 8 0;
