#N canvas 213 414 774 292 10;
#X obj 232 122 hsl 40 20 0 1 0 0 empty empty empty -2 -8 0 10 -4032
-1 -1 3132 1;
#X msg 337 176 wet \$1;
#X obj 180 122 hsl 40 20 0 1 0 0 empty empty empty -2 -8 0 10 -261682
-1 -1 768 1;
#X obj 127 122 hsl 40 20 0 1 0 0 empty empty empty -2 -8 0 10 -4034
-1 -1 2100 1;
#X msg 256 176 dry \$1;
#X msg 166 175 roomsize \$1;
#X msg 87 176 damping \$1;
#X msg 19 176 width \$1;
#X obj 74 122 hsl 40 20 0 1 0 0 empty empty empty -2 -8 0 10 -258113
-1 -1 3900 1;
#X obj 22 122 hsl 40 20 0 1 0 0 empty empty empty -2 -8 0 10 -159808
-1 -1 2600 1;
#X obj 258 60 r tempWet;
#X obj 177 59 r tempDry;
#X text 25 142 width;
#X text 71 141 damping;
#X text 125 142 roomsize;
#X text 190 142 dry;
#X text 243 142 wet;
#X obj 421 169 inlet~;
#X obj 511 167 inlet~;
#X obj 585 165 inlet~;
#X obj 671 166 inlet~;
#X obj 421 252 outlet~;
#X obj 511 251 outlet~;
#X obj 585 252 outlet~;
#X obj 671 252 outlet~;
#X obj 421 228 freeverb~;
#X obj 585 226 freeverb~;
#X connect 0 0 1 0;
#X connect 1 0 26 0;
#X connect 1 0 25 0;
#X connect 2 0 4 0;
#X connect 3 0 5 0;
#X connect 4 0 25 0;
#X connect 4 0 26 0;
#X connect 5 0 25 0;
#X connect 5 0 26 0;
#X connect 6 0 25 0;
#X connect 6 0 26 0;
#X connect 7 0 25 0;
#X connect 7 0 26 0;
#X connect 8 0 6 0;
#X connect 9 0 7 0;
#X connect 10 0 0 0;
#X connect 11 0 2 0;
#X connect 17 0 25 0;
#X connect 18 0 26 1;
#X connect 19 0 26 0;
#X connect 20 0 25 1;
#X connect 25 0 21 0;
#X connect 25 1 22 0;
#X connect 26 0 23 0;
#X connect 26 1 24 0;
#X coords 0 -1 1 1 300 60 1 10 100;
