#N canvas 596 79 760 563 10;
#X obj 440 40 loadSoundFile;
#X obj 473 311 output~;
#X obj 220 195 pink~;
#X obj 220 223 *~;
#X obj 339 240 env~;
#X obj 294 238 *;
#X obj 358 92 vsl 15 128 0 127 0 0 empty empty empty 0 -9 0 10 -262144
-1 -1 2800 1;
#X floatatom 311 330 5 0 0 0 - - -;
#X floatatom 392 319 5 0 0 0 - - -;
#X obj 397 264 * 0.04;
#X obj 220 257 vcf~ 2;
#X obj 229 305 bp~;
#X msg 300 190 10;
#X obj 238 346 bp~;
#X connect 0 0 4 0;
#X connect 2 0 3 0;
#X connect 3 0 10 0;
#X connect 4 0 5 0;
#X connect 4 0 9 0;
#X connect 5 0 7 0;
#X connect 5 0 10 1;
#X connect 5 0 11 1;
#X connect 5 0 13 1;
#X connect 6 0 5 1;
#X connect 9 0 3 1;
#X connect 9 0 8 0;
#X connect 9 0 11 2;
#X connect 9 0 13 2;
#X connect 10 0 11 0;
#X connect 11 0 13 0;
#X connect 12 0 3 1;
#X connect 13 0 1 0;
